<svg width="14" height="14" viewBox="0 0 14 14" fill="none" xmlns="http://www.w3.org/2000/svg">
<path fill-rule="evenodd" clip-rule="evenodd" d="M6.99992 0.333252C7.46016 0.333252 7.83325 0.706348 7.83325 1.16659V6.16658H12.8333C13.2935 6.16658 13.6666 6.53968 13.6666 6.99992C13.6666 7.46016 13.2935 7.83325 12.8333 7.83325H7.83325V12.8333C7.83325 13.2935 7.46016 13.6666 6.99992 13.6666C6.53968 13.6666 6.16658 13.2935 6.16658 12.8333V7.83325H1.16659C0.706348 7.83325 0.333252 7.46016 0.333252 6.99992C0.333252 6.53968 0.706348 6.16658 1.16659 6.16658H6.16658V1.16659C6.16658 0.706348 6.53968 0.333252 6.99992 0.333252Z" fill="#0B6F62"/>
</svg>
