<svg width="12" height="16" viewBox="0 0 12 16" fill="none" xmlns="http://www.w3.org/2000/svg">
<path fill-rule="evenodd" clip-rule="evenodd" d="M3.33333 0.666748C3.70152 0.666748 4 0.965225 4 1.33341V2.00008H5.33333V1.33341C5.33333 0.965225 5.63181 0.666748 6 0.666748C6.36819 0.666748 6.66667 0.965225 6.66667 1.33341V2.00008H8V1.33341C8 0.965225 8.29848 0.666748 8.66667 0.666748C9.03486 0.666748 9.33333 0.965225 9.33333 1.33341V2.00008H10C11.1046 2.00008 12 2.89551 12 4.00008V13.3334C12 14.438 11.1046 15.3334 10 15.3334H2C0.895431 15.3334 0 14.438 0 13.3334V4.00008C0 2.89551 0.895431 2.00008 2 2.00008H2.66667V1.33341C2.66667 0.965225 2.96514 0.666748 3.33333 0.666748ZM2.66667 3.33341H2C1.63181 3.33341 1.33333 3.63189 1.33333 4.00008V13.3334C1.33333 13.7016 1.63181 14.0001 2 14.0001H10C10.3682 14.0001 10.6667 13.7016 10.6667 13.3334V4.00008C10.6667 3.63189 10.3682 3.33341 10 3.33341H9.33333V4.00008C9.33333 4.36827 9.03486 4.66675 8.66667 4.66675C8.29848 4.66675 8 4.36827 8 4.00008V3.33341H6.66667V4.00008C6.66667 4.36827 6.36819 4.66675 6 4.66675C5.63181 4.66675 5.33333 4.36827 5.33333 4.00008V3.33341H4V4.00008C4 4.36827 3.70152 4.66675 3.33333 4.66675C2.96514 4.66675 2.66667 4.36827 2.66667 4.00008V3.33341ZM2.66667 6.66675C2.66667 6.29856 2.96514 6.00008 3.33333 6.00008H7.33333C7.70152 6.00008 8 6.29856 8 6.66675C8 7.03494 7.70152 7.33342 7.33333 7.33342H3.33333C2.96514 7.33342 2.66667 7.03494 2.66667 6.66675ZM2.66667 9.33342C2.66667 8.96523 2.96514 8.66675 3.33333 8.66675H8.66667C9.03486 8.66675 9.33333 8.96523 9.33333 9.33342C9.33333 9.7016 9.03486 10.0001 8.66667 10.0001H3.33333C2.96514 10.0001 2.66667 9.7016 2.66667 9.33342ZM2.66667 12.0001C2.66667 11.6319 2.96514 11.3334 3.33333 11.3334H6.66667C7.03486 11.3334 7.33333 11.6319 7.33333 12.0001C7.33333 12.3683 7.03486 12.6667 6.66667 12.6667H3.33333C2.96514 12.6667 2.66667 12.3683 2.66667 12.0001Z" fill="#6F690B"/>
</svg>
