<svg width="14" height="16" viewBox="0 0 14 16" fill="none" xmlns="http://www.w3.org/2000/svg">
<path fill-rule="evenodd" clip-rule="evenodd" d="M5.22132 2.22149C5.06489 2.37792 4.99992 2.55024 4.99992 2.66675V3.33341H8.99992V2.66675C8.99992 2.55024 8.93495 2.37792 8.77851 2.22149C8.62208 2.06505 8.44976 2.00008 8.33325 2.00008H5.66658C5.55007 2.00008 5.37776 2.06505 5.22132 2.22149ZM10.3333 3.33341V2.66675C10.3333 2.11659 10.0649 1.62224 9.72132 1.27868C9.37776 0.935113 8.88341 0.666748 8.33325 0.666748H5.66658C5.11643 0.666748 4.62208 0.935113 4.27851 1.27868C3.93495 1.62224 3.66659 2.11659 3.66659 2.66675V3.33341H0.999919C0.631729 3.33341 0.333252 3.63189 0.333252 4.00008C0.333252 4.36827 0.631729 4.66675 0.999919 4.66675H1.66659V13.3334C1.66659 13.8836 1.93495 14.3779 2.27851 14.7215C2.62208 15.065 3.11643 15.3334 3.66659 15.3334H10.3333C10.8834 15.3334 11.3778 15.065 11.7213 14.7215C12.0649 14.3779 12.3333 13.8836 12.3333 13.3334V4.66675H12.9999C13.3681 4.66675 13.6666 4.36827 13.6666 4.00008C13.6666 3.63189 13.3681 3.33341 12.9999 3.33341H10.3333ZM2.99992 4.66675V13.3334C2.99992 13.4499 3.06489 13.6222 3.22132 13.7787C3.37776 13.9351 3.55007 14.0001 3.66659 14.0001H10.3333C10.4498 14.0001 10.6221 13.9351 10.7785 13.7787C10.9349 13.6222 10.9999 13.4499 10.9999 13.3334V4.66675H2.99992ZM5.66658 6.66675C6.03477 6.66675 6.33325 6.96522 6.33325 7.33341V11.3334C6.33325 11.7016 6.03477 12.0001 5.66658 12.0001C5.2984 12.0001 4.99992 11.7016 4.99992 11.3334V7.33341C4.99992 6.96522 5.2984 6.66675 5.66658 6.66675ZM8.33325 6.66675C8.70144 6.66675 8.99992 6.96522 8.99992 7.33341V11.3334C8.99992 11.7016 8.70144 12.0001 8.33325 12.0001C7.96506 12.0001 7.66658 11.7016 7.66658 11.3334V7.33341C7.66658 6.96522 7.96506 6.66675 8.33325 6.66675Z" fill="#C82A19"/>
</svg>
